HIERARCHY
ROOT Hips
{
 OFFSET 0.000000 0.000000 0.000000
 CHANNELS 6 Xposition Yposition Zposition Yrotation Xrotation Zrotation
 JOINT Chest
 {
  OFFSET 0.000000 12.953391 -0.028419
  CHANNELS 3 Yrotation Xrotation Zrotation
  JOINT Chest2
  {
   OFFSET 0.000000 10.280254 0.051622
   CHANNELS 3 Yrotation Xrotation Zrotation
   JOINT Chest3
   {
    OFFSET 0.000000 9.287180 0.000000
    CHANNELS 3 Yrotation Xrotation Zrotation
    JOINT Chest4
    {
     OFFSET 0.000000 9.287180 0.000000
     CHANNELS 3 Yrotation Xrotation Zrotation
     JOINT Neck
     {
      OFFSET 0.000000 13.296264 0.000000
      CHANNELS 3 Yrotation Xrotation Zrotation
      JOINT Head
      {
       OFFSET 0.000000 8.959264 0.099003
       CHANNELS 3 Yrotation Xrotation Zrotation
       End Site
       {
        OFFSET 0.000000 17.121337 0.039303
       }
      }
     }
     JOINT RightCollar
     {
      OFFSET -3.193511 7.451388 0.000000
      CHANNELS 3 Yrotation Xrotation Zrotation
      JOINT RightShoulder
      {
       OFFSET -15.792092 0.000000 0.000000
       CHANNELS 3 Yrotation Xrotation Zrotation
       JOINT RightElbow
       {
        OFFSET -31.151839 0.000000 0.000000
        CHANNELS 3 Yrotation Xrotation Zrotation
        JOINT RightWrist
        {
         OFFSET -25.536298 0.000000 0.002321
         CHANNELS 3 Yrotation Xrotation Zrotation
         End Site
         {
          OFFSET -19.133213 0.000000 0.000000
         }
        }
       }
      }
     }
     JOINT LeftCollar
     {
      OFFSET 3.193511 7.451388 0.000000
      CHANNELS 3 Yrotation Xrotation Zrotation
      JOINT LeftShoulder
      {
       OFFSET 15.792092 0.000000 0.000000
       CHANNELS 3 Yrotation Xrotation Zrotation
       JOINT LeftElbow
       {
        OFFSET 31.151839 0.000000 0.000000
        CHANNELS 3 Yrotation Xrotation Zrotation
        JOINT LeftWrist
        {
         OFFSET 25.536298 0.000000 0.002321
         CHANNELS 3 Yrotation Xrotation Zrotation
         End Site
         {
          OFFSET 19.133213 0.000000 0.000000
         }
        }
       }
      }
     }
    }
   }
  }
 }
 JOINT RightHip
 {
  OFFSET -10.745749 0.139252 0.014209
  CHANNELS 3 Yrotation Xrotation Zrotation
  JOINT RightKnee
  {
   OFFSET 0.000000 -43.743899 -0.006071
   CHANNELS 3 Yrotation Xrotation Zrotation
   JOINT RightAnkle
   {
    OFFSET 0.000000 -43.214199 0.089931
    CHANNELS 3 Yrotation Xrotation Zrotation
    JOINT RightToe
    {
     OFFSET 0.000000 -9.699830 19.151588
     CHANNELS 3 Yrotation Xrotation Zrotation
     End Site
     {
      OFFSET 0.000000 -1.292898 4.893873
     }
    }
   }
  }
 }
 JOINT LeftHip
 {
  OFFSET 10.745749 0.139252 0.014209
  CHANNELS 3 Yrotation Xrotation Zrotation
  JOINT LeftKnee
  {
   OFFSET 0.000000 -43.743899 -0.006071
   CHANNELS 3 Yrotation Xrotation Zrotation
   JOINT LeftAnkle
   {
    OFFSET 0.000000 -43.214199 0.089931
    CHANNELS 3 Yrotation Xrotation Zrotation
    JOINT LeftToe
    {
     OFFSET 0.000000 -9.699830 19.151588
     CHANNELS 3 Yrotation Xrotation Zrotation
     End Site
     {
      OFFSET 0.000000 -1.292898 4.893873
     }
    }
   }
  }
 }
}
MOTION
Frames: 11
Frame Time: 0.016667
76.190346 93.188513 -267.483959 96.272185 -0.482235 -2.349327 -2.293527 5.728045 2.320439 -1.046707 2.534305 1.058311 -1.046709 2.534301 1.058310 -0.789299 1.898923 0.797948 -6.272733 16.872574 6.232050 -13.729765 -3.765559 13.668319 2.151594 -7.844279 8.094979 -15.072333 24.620765 41.365692 99.790541 15.026757 44.373635 36.162548 19.963054 -2.692728 -4.474041 0.641790 -5.631992 5.769210 20.384061 -49.490029 -107.861411 28.600978 -58.105866 -7.660526 18.554961 35.120352 -3.533382 -22.460420 -16.433103 3.723785 32.160152 -2.664352 -11.768529 -1.675096 -6.624315 -0.000000 0.000000 -0.000000 14.917550 -26.396833 8.371963 -4.946397 41.000861 0.997766 -7.863412 -12.696850 -8.825403 0.000000 0.000000 0.000000
76.880436 92.340109 -265.581689 95.775809 -0.625425 -2.186016 -2.408598 5.889163 2.211571 -1.097121 2.605916 1.012180 -1.097115 2.605918 1.012180 -0.827011 1.952636 0.763688 -6.318652 16.751165 6.260975 -13.842525 -3.975797 13.755447 1.958002 -8.184277 8.285639 -15.531887 24.379041 41.634715 100.183207 15.450271 44.054583 36.449340 19.987349 -1.399324 -4.578126 0.714913 -5.600698 5.191717 20.254791 -49.760506 -107.931239 29.083042 -57.846522 -8.061131 18.281021 35.040401 -3.297651 -22.967112 -17.773435 2.605035 32.412448 -3.145898 -13.774766 -0.895718 -7.983974 0.000000 -0.000000 -0.000000 13.960482 -26.927232 10.187949 -3.975910 42.785167 0.975675 -8.065497 -14.184527 -8.953119 0.000000 0.000000 0.000000
77.576734 91.689803 -263.517556 95.226109 -0.786035 -1.996763 -2.492656 6.028411 2.048412 -1.132908 2.668270 0.941525 -1.132908 2.668270 0.941525 -0.853643 1.999472 0.710968 -6.348784 16.662595 6.285073 -13.919698 -4.129194 13.823533 1.838465 -8.386110 8.399862 -15.919265 24.127305 41.881365 100.603284 15.797464 43.906283 36.460975 20.141336 -0.514020 -4.652952 0.792130 -5.545317 4.814325 20.148730 -49.870382 -107.903482 29.214658 -57.645096 -8.249032 18.040608 35.123990 -2.676627 -23.305903 -18.739440 1.553671 32.963028 -3.822426 -15.177003 0.143593 -9.066789 0.000000 -0.000000 0.000000 13.085524 -27.010304 12.008457 -3.276124 43.732043 0.977268 -8.076487 -15.010034 -9.403840 0.000000 0.000000 0.000000
78.295198 91.272941 -261.278507 94.630639 -0.951385 -1.793753 -2.548286 6.135578 1.829369 -1.155128 2.716874 0.845586 -1.155136 2.716879 0.845588 -0.869958 2.036077 0.639215 -6.365756 16.593991 6.311439 -13.970411 -4.247752 13.888453 1.773826 -8.487487 8.397205 -16.138492 24.005978 42.036628 101.049463 16.014372 43.969838 36.030959 20.488564 -0.293336 -4.676909 0.797167 -5.441515 4.677480 20.190703 -49.732161 -107.559574 28.720923 -57.443233 -8.100246 17.926315 35.449927 -1.457676 -23.372919 -19.229823 0.468469 33.906737 -4.963307 -15.613401 1.956483 -10.351539 -0.000000 -0.000000 -0.000000 12.546966 -26.557972 13.652167 -3.226409 43.585064 1.000571 -7.724354 -15.181494 -10.293893 0.004125 0.304264 0.149155
79.019871 91.054178 -258.877595 93.981500 -1.132986 -1.563957 -2.572287 6.219172 1.556973 -1.162404 2.755475 0.725458 -1.162405 2.755492 0.725463 -0.874910 2.065258 0.549242 -6.367658 16.558138 6.331522 -13.986324 -4.309710 13.931829 1.784324 -8.454536 8.311502 -16.286647 23.873774 42.167587 101.513029 16.160816 44.198735 35.314703 20.967871 -0.487577 -4.671678 0.807429 -5.313020 4.739493 20.265939 -49.440668 -107.140112 27.865890 -57.298782 -7.741439 17.842940 35.928988 0.127395 -23.258044 -19.336022 -0.591388 35.131948 -6.310991 -15.452832 4.103675 -11.292670 -0.000000 -0.000000 -0.000000 12.145708 -25.672080 15.248680 -3.364623 42.574879 1.074917 -7.233641 -14.673054 -11.489689 0.005475 0.608695 0.298019
79.761736 90.948952 -256.323390 93.177064 -1.402583 -1.289524 -2.539988 6.292564 1.216472 -1.143648 2.790017 0.574301 -1.143648 2.790017 0.574301 -0.860191 2.091449 0.435867 -6.340983 16.588663 6.339411 -13.934893 -4.257012 13.932521 1.839615 -8.308539 8.179337 -16.167923 23.727050 42.497268 101.633843 16.317760 44.442665 34.739617 21.372999 -0.883366 -4.656818 0.831328 -5.199941 5.033599 20.236835 -49.097685 -106.984737 27.055139 -57.319680 -7.414953 17.761633 36.326246 1.367139 -23.127427 -19.129978 -1.095013 36.480376 -7.176673 -15.202619 5.256702 -10.312266 0.000000 0.000000 -0.000000 11.933829 -24.427443 16.882180 -3.536619 41.007193 1.119981 -6.751867 -13.431629 -12.793474 0.000000 0.000000 0.000000
80.564986 90.957404 -253.594408 92.079502 -1.864743 -0.931022 -2.400368 6.380123 0.770896 -1.075710 2.831476 0.375111 -1.075699 2.831425 0.375107 -0.808345 2.122896 0.286260 -6.266480 16.733837 6.354883 -13.779466 -4.000545 13.913441 1.936253 -8.015171 7.983151 -15.602866 23.572781 43.228239 101.156598 16.592770 44.638785 34.554806 21.567693 -1.446225 -4.624272 0.900506 -5.118178 5.667109 19.996314 -48.722382 -107.262446 26.411378 -57.566083 -7.201766 17.711643 36.509253 1.938546 -23.034845 -18.513581 -0.255084 38.127860 -7.089034 -15.105571 4.781714 -5.885603 -0.000000 0.000000 0.000000 12.104395 -22.684174 18.621574 -3.731701 38.783000 1.104894 -6.480022 -11.401753 -14.370944 0.018191 -2.157067 -0.910551
81.385429 91.079393 -250.712134 90.823121 -2.408608 -0.517806 -2.200914 6.452934 0.258998 -0.980146 2.866591 0.145566 -0.980123 2.866535 0.145568 -0.735609 2.149649 0.113756 -6.162172 16.944325 6.356010 -13.555303 -3.631179 13.849002 2.081478 -7.611371 7.737391 -14.778762 23.390399 44.156744 100.335922 16.891529 44.847188 34.513223 21.677179 -2.206176 -4.581816 0.982329 -5.052430 6.526082 19.642498 -48.293628 -107.778128 25.807911 -57.958668 -7.017441 17.665217 36.608848 2.159512 -22.914962 -17.588850 1.192845 39.921514 -6.460016 -14.860386 3.179875 0.423513 -0.000000 0.000000 0.000000 12.490936 -20.578638 20.375766 -3.861417 35.998147 1.132378 -6.350509 -8.657636 -16.049644 0.102747 -5.228006 -2.269048
82.101464 91.229932 -247.749581 89.717733 -2.787341 -0.144369 -2.066458 6.446661 -0.221118 -0.913852 2.866145 -0.069365 -0.913852 2.866145 -0.069365 -0.684921 2.149718 -0.047724 -6.070905 17.106338 6.275329 -13.337858 -3.362355 13.646743 2.259082 -7.223194 7.529054 -14.048763 23.146676 44.895967 99.577788 16.995577 45.110309 34.302354 21.895930 -3.046202 -4.573811 0.989101 -4.995048 7.314871 19.349632 -47.849448 -108.318790 25.284331 -58.386827 -6.849494 17.511156 36.784424 2.292790 -22.770037 -16.737679 1.473212 41.193556 -6.010160 -14.187477 0.997677 5.521739 0.000000 0.000000 0.000000 12.589769 -18.594776 21.993443 -3.745093 33.264372 1.256351 -6.082180 -5.313740 -17.114179 0.283542 -8.208916 -4.054166
82.652656 91.377384 -244.668200 88.955001 -2.917098 0.136654 -2.084664 6.350452 -0.645954 -0.916205 2.825397 -0.258078 -0.916210 2.825457 -0.258085 -0.685828 2.119524 -0.189291 -6.007310 17.165404 6.072596 -13.147437 -3.298194 13.244886 2.481349 -6.888334 7.402291 -13.606668 22.688444 45.219474 99.055194 16.729704 45.592488 33.693955 22.359323 -4.106759 -4.659580 0.913023 -4.927079 7.943811 19.152651 -47.402831 -108.909829 24.854054 -58.833812 -6.577652 17.120864 37.266408 2.460442 -22.514556 -16.211484 -0.829708 41.436248 -6.253938 -12.615982 -1.709734 8.352889 0.000000 0.000000 -0.000000 11.924381 -16.811392 23.582666 -3.329008 30.625163 1.426094 -5.607887 -0.747681 -17.514944 0.630129 -11.563023 -7.148538
83.099441 91.553385 -241.506541 88.347835 -2.888501 0.365577 -2.169692 6.177963 -1.037763 -0.948996 2.750663 -0.431629 -0.948980 2.750722 -0.431636 -0.709645 2.063759 -0.319395 -5.955887 17.172290 5.790552 -12.959704 -3.340072 12.709025 2.735135 -6.568378 7.314681 -13.255999 22.176377 45.355775 98.589760 16.270853 46.138487 32.902726 22.922110 -5.264108 -4.781837 0.763377 -4.865144 8.505067 19.022477 -46.938477 -109.532682 24.501622 -59.318708 -6.318719 16.626215 37.826958 2.550752 -22.248442 -15.764846 -4.265032 41.099124 -6.644686 -10.589974 -4.761799 10.018693 0.000000 0.000000 -0.000000 10.972799 -15.141120 25.021043 -2.713141 28.052830 1.671379 -5.019772 4.455707 -17.285599 1.139472 -14.745896 -10.772592
